<svg xmlns="http://www.w3.org/2000/svg" viewBox="356 1040 1240 290">
<g transform="translate(364 1192) scale(0.8990 1)"><path fill="#0D1D30" d="M64.4 2.5L64.4 2.5Q47.1 2.5 31.3-2.2Q15.4-6.8 5.8-14.2L5.8-14.2L17.1-39.3Q26.1-32.7 38.9-28.5Q51.6-24.3 64.6-24.3L64.6-24.3Q79.4-24.3 85.9-28.6Q92.4-32.9 92.4-39.7L92.4-39.7Q92.4-45.5 87.8-48.9Q83.3-52.3 75.8-54.4Q68.3-56.6 59.5-58.5Q50.6-60.5 41.7-63.3Q32.7-66.0 25.2-70.7Q17.7-75.3 13.2-82.8Q8.6-90.3 8.6-101.6L8.6-101.6Q8.6-114.0 15.3-124.1Q22.0-134.3 35.5-140.4Q49.0-146.5 69.3-146.5L69.3-146.5Q82.9-146.5 96.1-143.2Q109.2-139.9 119.3-133.7L119.3-133.7L109.0-108.4Q98.9-114.2 88.8-116.9Q78.6-119.7 69.1-119.7L69.1-119.7Q54.3-119.7 48.0-114.9Q41.8-110.1 41.8-103.3L41.8-103.3Q41.8-97.7 46.3-94.3Q50.8-90.9 58.2-88.8Q65.6-86.6 74.6-84.8Q83.5-82.9 92.5-80.1Q101.4-77.3 108.9-72.8Q116.4-68.3 121.0-60.9Q125.5-53.5 125.5-42.2L125.5-42.2Q125.5-30.0 118.8-20.0Q112.1-9.9 98.5-3.7Q85.0 2.5 64.4 2.5ZM217.2 2.5L217.2 2.5Q200.6 2.5 186.3-3.1Q172.0-8.6 161.5-18.6Q151.0-28.6 145.1-42.2Q139.3-55.7 139.3-72.0L139.3-72.0Q139.3-88.3 145.1-101.8Q151.0-115.4 161.6-125.4Q172.2-135.4 186.4-140.9Q200.6-146.5 217.4-146.5L217.4-146.5Q236.2-146.5 251.4-139.9Q266.6-133.3 276.7-121.0L276.7-121.0L255.3-101.2Q240.5-118.1 219.1-118.1L219.1-118.1Q205.5-118.1 195.1-112.2Q184.7-106.4 178.9-96.0Q173.0-85.6 173.0-72.0L173.0-72.0Q173.0-58.4 178.9-48.0Q184.7-37.6 195.1-31.8Q205.5-25.9 219.1-25.9L219.1-25.9Q240.5-25.9 255.3-43.0L255.3-43.0L276.7-23.2Q266.6-10.7 251.4-4.1Q236.2 2.5 217.2 2.5ZM367.0 2.5L367.0 2.5Q349.9 2.5 335.6-3.1Q321.3-8.6 310.6-18.7Q299.9-28.8 294.1-42.4Q288.2-56.0 288.2-72.0L288.2-72.0Q288.2-88.0 294.1-101.6Q299.9-115.2 310.6-125.3Q321.3-135.4 335.6-140.9Q349.9-146.5 367.0-146.5L367.0-146.5Q384.1-146.5 398.4-140.9Q412.7-135.4 423.4-125.4Q434.1-115.4 439.9-101.7Q445.8-88.0 445.8-72.0L445.8-72.0Q445.8-56.0 439.9-42.3Q434.1-28.6 423.4-18.6Q412.7-8.6 398.4-3.1Q384.1 2.5 367.0 2.5ZM367.0-25.9L367.0-25.9Q379.7-25.9 389.9-31.8Q400.1-37.6 406.1-48.0Q412.0-58.4 412.0-72.0L412.0-72.0Q412.0-85.6 406.1-96.0Q400.1-106.4 389.9-112.2Q379.7-118.1 367.0-118.1L367.0-118.1Q354.2-118.1 344.1-112.2Q333.9-106.4 327.9-96.0Q321.9-85.6 321.9-72.0L321.9-72.0Q321.9-58.4 327.9-48.0Q333.9-37.6 344.1-31.8Q354.2-25.9 367.0-25.9ZM534.9 2.5L534.9 2.5Q504.2 2.5 486.9-14.6Q469.6-31.7 469.6-63.4L469.6-63.4L469.6-144.0L503.0-144.0L503.0-64.6Q503.0-44.0 511.4-35.0Q519.8-25.9 535.1-25.9L535.1-25.9Q550.3-25.9 558.7-35.0Q567.2-44.0 567.2-64.6L567.2-64.6L567.2-144.0L600.1-144.0L600.1-63.4Q600.1-31.7 582.8-14.6Q565.5 2.5 534.9 2.5ZM696.1 0L662.8 0L662.8-116.8L616.7-116.8L616.7-144.0L742.2-144.0L742.2-116.8L696.1-116.8L696.1 0Z"></path></g>
<g transform="translate(1100 1192) scale(0.8600 1)"><path fill="#0D1D30" d="M124.5 0L25.1 0L25.1-144.0L121.4-144.0L121.4-134.5L35.6-134.5L35.6-77.8L112.3-77.8L112.3-68.5L35.6-68.5L35.6-9.5L124.5-9.5L124.5 0ZM256.1 0L162.7 0L162.7-144.0L173.2-144.0L173.2-9.5L256.1-9.5L256.1 0ZM293.6 0L283.1 0L283.1-144.0L293.6-144.0L293.6 0ZM381.8 0L371.3 0L371.3-134.5L319.5-134.5L319.5-144.0L433.6-144.0L433.6-134.5L381.8-134.5L381.8 0ZM558.9 0L459.6 0L459.6-144.0L555.8-144.0L555.8-134.5L470.1-134.5L470.1-77.8L546.8-77.8L546.8-68.5L470.1-68.5L470.1-9.5L558.9-9.5L558.9 0Z"></path></g>
<g transform="translate(662 1316)"><path fill="#223139" d="M19.7 0.4L19.7 0.4Q14.4 0.4 9.6-1.1Q4.8-2.6 2.1-4.9L2.1-4.9L4.8-9.5Q7.3-7.5 11.4-6.1Q15.5-4.7 20.1-4.7L20.1-4.7Q26.2-4.7 29.0-6.6Q31.7-8.5 31.7-11.7L31.7-11.7Q31.7-14.1 30.1-15.5Q28.6-16.8 26.1-17.5Q23.6-18.2 20.6-18.7Q17.6-19.2 14.7-19.8Q11.7-20.5 9.2-21.8Q6.7-23.0 5.2-25.3Q3.7-27.5 3.7-31.2L3.7-31.2Q3.7-36.5 8.1-40.0Q12.5-43.5 20.7-43.5L20.7-43.5Q24.9-43.5 29.1-42.4Q33.3-41.3 36.0-39.4L36.0-39.4L33.5-34.8Q30.6-36.7 27.3-37.6Q24.0-38.5 20.7-38.5L20.7-38.5Q14.9-38.5 12.2-36.4Q9.5-34.4 9.5-31.3L9.5-31.3Q9.4-28.9 10.9-27.5Q12.5-26.1 15.0-25.3Q17.5-24.5 20.5-24.0Q23.5-23.5 26.4-22.8Q29.4-22.1 31.9-21.0Q34.4-19.8 36.0-17.6Q37.5-15.4 37.5-11.9L37.5-11.9Q37.5-6.3 32.8-3.0Q28.1 0.4 19.7 0.4ZM66.1 0.4L66.1 0.4Q59.6 0.4 54.6-2.4Q49.6-5.2 46.7-10.2Q43.9-15.2 43.9-21.6L43.9-21.6Q43.9-28.0 46.7-32.9Q49.6-37.9 54.6-40.7Q59.6-43.5 66.1-43.5L66.1-43.5Q71.6-43.5 76.0-41.3Q80.5-39.2 83.0-34.9L83.0-34.9L78.6-32.0Q76.4-35.3 73.2-36.8Q69.9-38.4 66.1-38.4L66.1-38.4Q61.3-38.4 57.7-36.3Q54.0-34.2 51.9-30.4Q49.8-26.7 49.8-21.6L49.8-21.6Q49.8-16.5 51.9-12.7Q54.0-8.9 57.7-6.8Q61.3-4.8 66.1-4.8L66.1-4.8Q69.9-4.8 73.2-6.3Q76.4-7.8 78.6-11.1L78.6-11.1L83.0-8.1Q80.5-3.9 76.0-1.8Q71.6 0.4 66.1 0.4ZM112.0 0.4L112.0 0.4Q105.7 0.4 100.8-2.4Q95.8-5.2 92.9-10.2Q90.0-15.2 90.0-21.6L90.0-21.6Q90.0-28.0 92.9-32.9Q95.8-37.9 100.8-40.7Q105.7-43.5 112.0-43.5L112.0-43.5Q118.3-43.5 123.3-40.7Q128.2-37.9 131.1-32.9Q133.9-28.0 133.9-21.6L133.9-21.6Q133.9-15.2 131.1-10.2Q128.2-5.2 123.3-2.4Q118.3 0.4 112.0 0.4ZM112.0-4.8L112.0-4.8Q116.6-4.8 120.2-6.8Q123.8-8.9 125.9-12.8Q128.0-16.6 128.0-21.6L128.0-21.6Q128.0-26.6 125.9-30.3Q123.8-34.1 120.2-36.2Q116.6-38.4 112.0-38.4L112.0-38.4Q107.4-38.4 103.8-36.2Q100.1-34.1 98.0-30.3Q96.0-26.6 96.0-21.6L96.0-21.6Q96.0-16.6 98.0-12.8Q100.1-8.9 103.8-6.8Q107.4-4.8 112.0-4.8ZM163.6 0.4L163.6 0.4Q155.3 0.4 150.4-4.2Q145.4-8.8 145.4-18.1L145.4-18.1L145.4-43.1L151.2-43.1L151.2-18.7Q151.2-11.8 154.6-8.3Q158.0-4.8 164.2-4.8L164.2-4.8Q171.0-4.8 174.9-9.0Q178.9-13.1 178.9-20.5L178.9-20.5L178.9-43.1L184.7-43.1L184.7 0L179.1 0L179.1-7.8Q176.9-3.9 172.8-1.8Q168.8 0.4 163.6 0.4ZM214.6 0.4L214.6 0.4Q208.6 0.4 205.3-2.9Q202.0-6.2 202.0-12.1L202.0-12.1L202.0-38.2L194.3-38.2L194.3-43.1L202.0-43.1L202.0-52.6L207.8-52.6L207.8-43.1L220.9-43.1L220.9-38.2L207.8-38.2L207.8-12.5Q207.8-4.6 215.3-4.6L215.3-4.6Q219.1-4.6 221.7-6.8L221.7-6.8L223.7-2.6Q222.0-1.1 219.6-0.3Q217.2 0.4 214.6 0.4ZM252.6-19.7L231.1-19.7L231.1-24.8L252.6-24.8L252.6-19.7ZM283.9 0.4L283.9 0.4Q277.2 0.4 272.1-2.4Q267.0-5.2 264.2-10.2Q261.3-15.2 261.3-21.6L261.3-21.6Q261.3-28.0 264.0-32.9Q266.8-37.9 271.5-40.7Q276.3-43.5 282.4-43.5L282.4-43.5Q288.4-43.5 293.2-40.7Q297.9-38.0 300.6-33.0Q303.3-28.0 303.3-21.6L303.3-21.6Q303.3-21.2 303.2-20.7Q303.2-20.3 303.2-19.8L303.2-19.8L267.0-19.8Q267.4-15.3 269.6-11.9Q271.9-8.5 275.6-6.6Q279.3-4.8 284.1-4.8L284.1-4.8Q288.0-4.8 291.4-6.2Q294.8-7.5 297.3-10.4L297.3-10.4L300.6-6.6Q297.6-3.2 293.4-1.4Q289.1 0.4 283.9 0.4ZM267.1-24.1L267.1-24.1L297.7-24.1Q297.4-28.4 295.3-31.6Q293.3-34.8 289.9-36.6Q286.5-38.5 282.4-38.5L282.4-38.5Q278.2-38.5 274.9-36.7Q271.5-34.9 269.5-31.6Q267.4-28.4 267.1-24.1ZM321.0 0L315.2 0L315.2-60.9L321.0-60.9L321.0 0ZM343.1 0L337.2 0L337.2-43.1L343.1-43.1L343.1 0ZM340.2-52.6L340.2-52.6Q338.4-52.6 337.1-53.8Q335.9-55.0 335.9-56.8L335.9-56.8Q335.9-58.4 337.1-59.6Q338.4-60.9 340.2-60.9L340.2-60.9Q342.0-60.9 343.2-59.7Q344.4-58.6 344.4-56.8L344.4-56.8Q344.4-55.0 343.2-53.8Q342.0-52.6 340.2-52.6ZM372.9 0.4L372.9 0.4Q366.8 0.4 363.6-2.9Q360.3-6.2 360.3-12.1L360.3-12.1L360.3-38.2L352.6-38.2L352.6-43.1L360.3-43.1L360.3-52.6L366.1-52.6L366.1-43.1L379.2-43.1L379.2-38.2L366.1-38.2L366.1-12.5Q366.1-4.6 373.6-4.6L373.6-4.6Q377.4-4.6 380.0-6.8L380.0-6.8L382.0-2.6Q380.3-1.1 377.9-0.3Q375.4 0.4 372.9 0.4ZM410.9 0.4L410.9 0.4Q404.2 0.4 399.1-2.4Q394.0-5.2 391.1-10.2Q388.2-15.2 388.2-21.6L388.2-21.6Q388.2-28.0 391.0-32.9Q393.7-37.9 398.5-40.7Q403.3-43.5 409.3-43.5L409.3-43.5Q415.4-43.5 420.1-40.7Q424.8-38.0 427.5-33.0Q430.2-28.0 430.2-21.6L430.2-21.6Q430.2-21.2 430.2-20.7Q430.2-20.3 430.2-19.8L430.2-19.8L394.0-19.8Q394.3-15.3 396.6-11.9Q398.8-8.5 402.6-6.6Q406.3-4.8 411.0-4.8L411.0-4.8Q415.0-4.8 418.4-6.2Q421.8-7.5 424.2-10.4L424.2-10.4L427.5-6.6Q424.6-3.2 420.3-1.4Q416.0 0.4 410.9 0.4ZM394.1-24.1L394.1-24.1L424.7-24.1Q424.3-28.4 422.3-31.6Q420.2-34.8 416.9-36.6Q413.5-38.5 409.3-38.5L409.3-38.5Q405.1-38.5 401.8-36.7Q398.5-34.9 396.4-31.6Q394.4-28.4 394.1-24.1ZM442.7 0.4L442.7 0.4Q440.9 0.4 439.6-0.9Q438.4-2.1 438.4-4.1L438.4-4.1Q438.4-6.0 439.6-7.3Q440.9-8.5 442.7-8.5L442.7-8.5Q444.5-8.5 445.8-7.3Q447.1-6.0 447.1-4.1L447.1-4.1Q447.1-2.1 445.8-0.9Q444.5 0.4 442.7 0.4ZM477.4 0.4L477.4 0.4Q470.9 0.4 465.9-2.4Q460.9-5.2 458.0-10.2Q455.2-15.2 455.2-21.6L455.2-21.6Q455.2-28.0 458.0-32.9Q460.9-37.9 465.9-40.7Q470.9-43.5 477.4-43.5L477.4-43.5Q482.9-43.5 487.3-41.3Q491.7-39.2 494.3-34.9L494.3-34.9L489.9-32.0Q487.7-35.3 484.4-36.8Q481.2-38.4 477.4-38.4L477.4-38.4Q472.6-38.4 469.0-36.3Q465.3-34.2 463.2-30.4Q461.1-26.7 461.1-21.6L461.1-21.6Q461.1-16.5 463.2-12.7Q465.3-8.9 469.0-6.8Q472.6-4.8 477.4-4.8L477.4-4.8Q481.2-4.8 484.4-6.3Q487.7-7.8 489.9-11.1L489.9-11.1L494.3-8.1Q491.7-3.9 487.3-1.8Q482.9 0.4 477.4 0.4ZM523.3 0.4L523.3 0.4Q517.0 0.4 512.0-2.4Q507.1-5.2 504.2-10.2Q501.3-15.2 501.3-21.6L501.3-21.6Q501.3-28.0 504.2-32.9Q507.1-37.9 512.0-40.7Q517.0-43.5 523.3-43.5L523.3-43.5Q529.6-43.5 534.6-40.7Q539.5-37.9 542.3-32.9Q545.2-28.0 545.2-21.6L545.2-21.6Q545.2-15.2 542.3-10.2Q539.5-5.2 534.6-2.4Q529.6 0.4 523.3 0.4ZM523.3-4.8L523.3-4.8Q527.9-4.8 531.5-6.8Q535.1-8.9 537.2-12.8Q539.3-16.6 539.3-21.6L539.3-21.6Q539.3-26.6 537.2-30.3Q535.1-34.1 531.5-36.2Q527.9-38.4 523.3-38.4L523.3-38.4Q518.7-38.4 515.1-36.2Q511.4-34.1 509.3-30.3Q507.2-26.6 507.2-21.6L507.2-21.6Q507.2-16.6 509.3-12.8Q511.4-8.9 515.1-6.8Q518.7-4.8 523.3-4.8ZM562.9 0L557.1 0L557.1-43.1L562.7-43.1L562.7-35.3Q565.0-39.2 569.0-41.3Q573.1-43.5 578.5-43.5L578.5-43.5Q583.8-43.5 587.9-41.2Q592.0-38.9 593.8-34.4L593.8-34.4Q596.1-38.5 600.6-41.0Q605.1-43.5 610.9-43.5L610.9-43.5Q618.8-43.5 623.5-38.9Q628.3-34.3 628.3-25.0L628.3-25.0L628.3 0L622.5 0L622.5-24.4Q622.5-31.2 619.2-34.7Q615.9-38.2 610.1-38.2L610.1-38.2Q603.4-38.2 599.5-34.1Q595.7-30.0 595.7-22.6L595.7-22.6L595.7 0L589.8 0L589.8-24.4Q589.8-31.2 586.5-34.7Q583.3-38.2 577.4-38.2L577.4-38.2Q570.8-38.2 566.9-34.1Q562.9-30.0 562.9-22.6L562.9-22.6L562.9 0Z"></path></g>
</svg>