<svg xmlns="http://www.w3.org/2000/svg" viewBox="8 -4 743 913" width="743" height="913">
<path fill="#FFFFFF" d="M379.3 -3.9L750.3 228.8L750.3 670.4L379.3 908.4L8.3 670.4L8.3 228.8Z"></path>
<path fill="#0A2239" fill-rule="evenodd" d="M379.3 31.5L725.3 248.5L725.3 649L379.3 871L33.3 649L33.3 248.5ZM397.5 112L394 119.5L395 691.5L392 712.5L383 733.5L371 749.5L343 773.5L344.5 779L381.5 801L623.5 652L656.5 631L663 623.5L663 546.5L661.5 543L656.5 543L535.5 623L470.5 663L468 661.5L466 648.5L467 483.5L469.5 481L631.5 481L637 477.5L635.5 411L471.5 411L468 408.5L466 357.5L468 242.5L472.5 241L507.5 261L658.5 358L663 355.5L664 280.5L663 276.5L648.5 265ZM355.5 116L151.5 243L100.5 272L91 282.5L91 406.5L93 410.5L117.5 428L270.5 521L285 533.5L286 656.5L282.5 660L270.5 657L255.5 665L220.5 688L215 693.5L215 698.5L260.5 728L294.5 741L316.5 741L335.5 734L348 722.5L359 701.5L361 683.5L360 493.5L169.5 375L166 367.5L166 321.5L185.5 305L277.5 249L283.5 248L286 253.5L286 381.5L295.5 391L347.5 420L356.5 424L360 421.5L361 121.5L360 117.5ZM93.5 472L91 474.5L92 598.5L107 628.5L118.5 639L133.5 647L185.5 615L191 610.5L191 606.5L166 583.5L164 513.5ZM498.5 292L495 294.5L498 304.5L497 313.5L503.5 311L511.5 312L526 330.5L511.5 347L503.5 349L497.5 345L494 346.5L497 358.5L492 369.5L493.5 374L498.5 375L505.5 370L510.5 370L523.5 375L525 370.5L516 359.5L516 354.5L524.5 344L535.5 338L552 353.5L551 359.5L543 370.5L543.5 375L564.5 368L584.5 379L594.5 379L605.5 371L614.5 377L619 376.5L619 372.5L607.5 356L591.5 373L583.5 372L572 357.5L572 353.5L581 341.5L578.5 337L572.5 336L562.5 344L557.5 343L544 330.5L550 317.5L548.5 314L544.5 313L530.5 318L515 306.5L513.5 293ZM578.5 517L564.5 524L550.5 519L543 521.5L553 536.5L552 543.5L537.5 557L522.5 552L520 553.5L526 567.5L521 575.5L508.5 586L494 586.5L494.5 606L512.5 606L515 601.5L512 592.5L524.5 580L530.5 577L542.5 581L548.5 579L544 565.5L560.5 549L565.5 549L576.5 556L581 554.5L572 538.5L584 518.5ZM221.5 623L165.5 661L163 664.5L164 669.5L176.5 678L182.5 678L231.5 646L239 638.5L239 633.5L229.5 625ZM515.5 522L505.5 527L493 524.5L498 535.5L494.5 550L505.5 546L515 546.5L515 536.5L521 525.5ZM597.5 514L594 518.5L609.5 538L619 530.5L626 518.5L621.5 514L609.5 524Z"></path>
</svg>